<svg xmlns="http://www.w3.org/2000/svg" width="32" height="32" fill="none" viewBox="0 0 32 32"><path fill="#0052CD" d="M4 7H28V24C28 24.2652 27.8946 24.5196 27.7071 24.7071C27.5196 24.8946 27.2652 25 27 25H5C4.73478 25 4.48043 24.8946 4.29289 24.7071C4.10536 24.5196 4 24.2652 4 24V7Z"/><g opacity=".75"><path fill="#0D3777" d="M28 21L16 13L4 21"/><path fill="#0D3777" d="M28 21L16 13L4 21V25H28V21Z"/></g><path fill="#002358" fill-opacity=".1" d="M16 20L4 9V7H28V9L16 20Z"/><path fill="#3787FF" d="M16 18L28 7H4L16 18Z"/><path fill="#fff" fill-opacity=".2" fill-rule="evenodd" d="M4 7H28L26.9091 8H5.09091L4 7Z" clip-rule="evenodd"/></svg>